<svg xmlns="http://www.w3.org/2000/svg" xml:space="preserve" viewBox="0 0 4501 4501"><path fill="#FFF" d="M3024 4508H4V4h4504v4504H3024m-1284.11-805.922c11.294 3.995 22.505 8.246 33.895 11.944 88.808 28.837 179.257 50.354 271.884 63.01 50.856 6.95 101.857 11.778 153.051 13.67 49.233 1.82 98.492 1.642 147.806-1.498 51.891-3.305 103.429-8.628 154.8-16.494 70.549-10.803 139.81-27.056 207.996-47.898 117.715-35.98 229.434-85.522 335.208-148.586 87.293-52.046 168.963-111.702 244.105-180.066 54.756-49.816 106.213-102.906 153.535-159.966 113.395-136.733 200.613-288.467 261.625-455.247 53.944-147.462 83.528-299.935 90.901-456.575 2.471-52.498 2.54-105.164-1.445-157.786-2.514-33.199-4.906-66.365-8.653-99.462-4.875-43.048-12.061-85.697-20.945-128.043-28.46-135.666-74.174-265.195-137.899-388.43-46.072-89.097-100.14-172.909-162.429-251.454-67.74-85.417-143.667-162.869-227.907-232.04-73.81-60.607-152.542-113.965-236.287-160.088-125.066-68.88-257.107-119.16-396.195-150.961-69.507-15.892-139.68-27.97-210.947-32.51-41.185-2.623-82.395-5.936-123.627-6.495-60.613-.822-121.057 3.264-181.37 10.021-47.68 5.342-95.062 12.343-141.961 22.15-142.951 29.888-279.068 78.833-407.962 147.73-155.419 83.077-292.879 189.236-411.886 319.265-61.794 67.517-117.213 139.867-166.164 217.224-42.483 67.134-79.66 137.03-111.214 209.934-36.596 84.553-65.999 171.53-86 261.47-9.671 43.49-17.826 87.377-24.825 131.378-4.907 30.845-7.435 62.132-9.692 93.318-2.833 39.143-4.782 78.368-6.14 117.592-.598 17.234 1.702 34.548 1.824 51.832.382 54.04 5.539 107.664 12.418 161.208 6.284 48.913 15.042 97.369 26.329 145.318 32.541 138.247 82.788 269.718 151.932 393.9 82.733 148.587 186.858 280.103 312.932 394.33 74.823 67.793 155.323 127.812 241.907 179.704 85.374 51.165 174.657 94.091 271.4 128.6z"/><path fill="#9A46E8" d="M1738.447 3701.466c-95.3-33.898-184.583-76.824-269.957-127.99-86.584-51.89-167.084-111.91-241.907-179.703-126.074-114.227-230.2-245.743-312.932-394.33-69.144-124.182-119.39-255.653-151.932-393.9-11.287-47.95-20.045-96.405-26.33-145.318-6.878-53.544-12.035-107.169-12.417-161.208-.122-17.284-2.422-34.598-1.825-51.832 1.36-39.224 3.308-78.449 6.14-117.592 2.258-31.186 4.786-62.473 9.693-93.318 6.999-44 15.154-87.889 24.825-131.378 20.001-89.94 49.404-176.917 86-261.47 31.554-72.904 68.731-142.8 111.214-209.934 48.95-77.357 104.37-149.707 166.164-217.224 119.007-130.029 256.467-236.188 411.886-319.265 128.894-68.897 265.01-117.842 407.962-147.73 46.899-9.807 94.28-16.808 141.961-22.15 60.313-6.757 120.757-10.843 181.37-10.02 41.232.558 82.442 3.87 123.627 6.494 71.268 4.54 141.44 16.618 210.947 32.51 139.088 31.802 271.13 82.082 396.195 150.961 83.745 46.123 162.477 99.48 236.287 160.088 84.24 69.171 160.167 146.623 227.907 232.04 62.29 78.545 116.357 162.357 162.43 251.455 63.724 123.234 109.438 252.763 137.898 388.429 8.884 42.346 16.07 84.995 20.945 128.043 3.747 33.097 6.14 66.263 8.653 99.462 3.986 52.622 3.916 105.288 1.445 157.786-7.373 156.64-36.957 309.113-90.901 456.575-61.012 166.78-148.23 318.514-261.625 455.247-47.322 57.06-98.78 110.15-153.535 159.966-75.142 68.364-156.812 128.02-244.105 180.066-105.774 63.064-217.493 112.605-335.208 148.586-68.185 20.842-137.447 37.095-207.995 47.898-51.372 7.866-102.91 13.19-154.801 16.494-49.314 3.14-98.573 3.318-147.806 1.498-51.194-1.892-102.195-6.72-153.05-13.67-92.628-12.656-183.077-34.173-271.885-63.01-11.39-3.698-22.6-7.95-35.338-12.556m-405.72-2302.695c-1.687 2.062-3.262 4.229-5.077 6.171-39.665 42.457-75.273 88.15-108.276 135.906-65.175 94.307-116.21 195.817-153.53 304.14-22.367 64.924-39.38 131.277-50.37 199.142-5.323 32.87-10.41 65.75-12.322 99.02-2.212 38.52-4.457 77.045-6.052 115.593-.465 11.226 1.308 22.538 1.948 33.816 1.395 24.587 2.572 49.188 4.108 73.766 2.955 47.269 10.818 93.823 20.098 140.214 24.888 124.406 68.036 242.171 129.085 353.25 83.241 151.453 192.968 280.646 328.905 387.464 94.395 74.174 197.479 133.308 308.806 178.16 81.798 32.954 166.163 56.605 253.076 71.69 55.86 9.695 112.067 15.947 168.612 17.897 41.215 1.422 82.563 2.474 123.802-2.006 24.478-2.66 49.242-2.872 73.645-5.996 49.519-6.34 98.681-14.872 147.25-26.74 127.787-31.223 247.888-80.829 360-149.67 99.392-61.03 188.875-134.11 268.016-219.892 41.654-45.15 80.004-92.87 114.74-143.503 77.534-113.02 135.002-235.457 172.67-367.26 27.39-95.836 42.895-193.605 47.137-293.057 3.125-73.298-.387-146.383-10.231-219.217-9.118-67.462-23.098-133.793-42.891-198.855-54.366-178.701-144.338-337.492-268.864-476.563-61.089-68.225-129.054-128.95-203.55-182.386-111.942-80.296-233.639-140.887-365.299-181.191-82.964-25.398-167.643-42.733-254.294-49.363-33.831-2.59-67.704-4.912-101.601-6.237-17.226-.673-34.545 1.573-51.83 1.743-48.712.481-96.974 5.584-145.165 12.35-65.408 9.184-129.472 24.036-192.477 43.643-121.764 37.893-235 93.345-339.887 165.803-75.943 52.462-145.298 112.61-210.182 182.168z"/><path fill="#FFF" d="M1333.644 1397.698c63.967-68.485 133.322-128.633 209.265-181.095 104.887-72.458 218.123-127.91 339.887-165.803 63.005-19.607 127.069-34.459 192.477-43.643 48.19-6.766 96.453-11.869 145.165-12.35 17.285-.17 34.604-2.416 51.83-1.743 33.897 1.325 67.77 3.648 101.6 6.237 86.652 6.63 171.33 23.965 254.295 49.363 131.66 40.304 253.357 100.895 365.298 181.19 74.497 53.437 142.462 114.162 203.551 182.387 124.526 139.07 214.498 297.862 268.864 476.563 19.793 65.062 33.773 131.393 42.89 198.855 9.845 72.834 13.357 145.92 10.232 219.217-4.242 99.452-19.748 197.221-47.137 293.057-37.668 131.803-95.136 254.24-172.67 367.26-34.736 50.634-73.086 98.353-114.74 143.503-79.141 85.782-168.624 158.861-268.016 219.892-112.112 68.841-232.213 118.447-360 149.67-48.569 11.868-97.731 20.4-147.25 26.74-24.403 3.124-49.167 3.337-73.645 5.996-41.239 4.48-82.587 3.428-123.802 2.006-56.545-1.95-112.751-8.202-168.612-17.897-86.913-15.085-171.278-38.736-253.076-71.69-111.327-44.852-214.41-103.986-308.806-178.16-135.937-106.818-245.664-236.01-328.905-387.465-61.049-111.078-104.197-228.843-129.085-353.25-9.28-46.39-17.143-92.944-20.098-140.213-1.536-24.578-2.713-49.179-4.108-73.766-.64-11.278-2.413-22.59-1.948-33.816 1.595-38.548 3.84-77.072 6.052-115.593 1.912-33.27 6.999-66.15 12.322-99.02 10.99-67.865 28.003-134.218 50.37-199.141 37.32-108.324 88.355-209.834 153.53-304.141 33.003-47.756 68.611-93.45 108.276-135.906 1.815-1.942 3.39-4.109 5.994-7.244M1724.284 2506c.003-30.663-.07-61.327.095-91.989.024-4.412 1.202-8.819 2.01-14.35h20.845c61.988 0 123.977.126 185.964-.074 20.028-.065 39.872.774 59.656 4.362 35.659 6.468 69.858 16.922 101.32 35.245 45.705 26.62 75.579 64.678 83.325 117.979 2 13.768 2.646 27.839 2.663 41.773.18 154.637.1 309.274.152 463.91.003 7.854-.821 15.834 1.394 24.47 10.234 2.55 20.188 1.257 29.987 1.448 10.66.207 21.328.047 31.993.047h29.994c10.665 0 21.336.23 31.992-.068 9.778-.273 19.778 1.497 30.664-1.993.204-8.372.563-16.228.564-24.084.03-256.618-.013-513.235.121-769.853.008-14.607 1.08-29.24 2.245-43.815 3.808-47.65 27.72-84.553 64.712-112.499 46.686-35.27 101.557-50.384 158.932-52.234 72.578-2.339 145.287-.615 217.94-.49 3.724.007 7.445 1.465 12.069 2.435v22.717c0 78.651.035 157.303-.03 235.955-.013 15.99.134 32.01-.708 47.967-3.361 63.73-30.094 115.165-81.99 152.86-38.544 27.998-82.25 43.165-128.918 50.605-7.083 1.13-14.43 1.246-20.825 5.482-1.428 18.12 1.741 35.201 3.077 52.38 1.29 16.582 2.098 33.204 3.581 49.767 1.52 16.978-.861 34.343 3.836 50.921 11.835 2.314 22.173-.844 32.656-2.333 66.975-9.51 128.94-32.837 185.567-69.491 56.572-36.618 100.444-84.859 128.829-146.618 23.25-50.588 32.629-104.14 32.874-159.18.628-140.637.21-281.279.209-421.919 0-5.332.18-10.673-.078-15.993-.184-3.799-.963-7.569-1.487-11.43-8.725-3.387-16.788-2.188-24.639-2.194-111.979-.08-223.957-.135-335.936.031-16.621.025-33.24 1.233-49.862 1.83-3.886.14-7.78.02-12.484.02 2.324-16.774 4.091-32.448 6.733-47.973 5.006-29.415 2.113-58.458-3.77-87.289-11.695-57.323-40.86-105.14-81.698-146.142-80.902-81.23-162.074-162.19-243.169-243.227-3.671-3.67-7.682-6.999-12.421-11.289-5.85 5.513-11.22 10.325-16.313 15.414-65.542 65.483-131.262 130.79-196.487 196.589-48.93 49.36-81.829 108.111-98.474 175.583-9.515 38.569-11.225 77.579-2.634 116.758 10.268 46.823 32.888 86.9 65.531 121.59 2.584 2.746 5.947 4.759 8.759 6.964 16.75-13.83 99.83-97.402 109.719-110.41-2.643-3.326-5.505-6.817-8.252-10.398-20.31-26.471-26.809-55.77-19.264-88.5 8.957-38.86 29-71.468 56.158-99.732 29.552-30.753 60.176-60.476 90.382-90.597 3.211-3.202 6.76-6.067 10.603-9.49 2.805 2.039 5.108 3.29 6.888 5.067 46.231 46.146 92.601 92.157 138.425 138.705 8.786 8.924 16.488 19.36 22.795 30.201 22.007 37.829 21.597 77.397 6.639 117.45-7.024 18.809-16.254 36.704-28.798 52.343-25.415 31.685-51.778 62.608-77.494 94.054-10.945 13.385-22.244 26.647-31.66 41.088-33.323 51.106-47.56 107.95-48.526 168.507-.21 13.184.648 26.417-.67 39.845-8.356 1.28-13.395-3.86-19.044-6.786-70.519-36.52-145.695-54.553-224.85-54.992-111.975-.62-223.956-.157-335.935-.156-6.665 0-13.345-.252-19.99.126-3.725.211-7.39 1.475-11.298 2.31-.288 5.628-.73 10.253-.73 14.878-.037 150.638-.14 301.276.045 451.913.05 39.652 7.787 78.143 21.074 115.377 23.536 65.95 64.376 119.21 120.76 160.427 67.173 49.106 143.06 75.75 225.206 85.665 3.73.45 7.608-.34 12.294-.602 4.698-51.966 8.056-102.818 10.626-154.817-6.696-1.291-12.438-2.685-18.263-3.476-36.657-4.982-71.49-15.955-104.06-33.308-42.415-22.598-75.313-54.62-94.235-99.645-11.512-27.393-16.753-56.077-16.848-85.657-.195-61.321-.06-122.643-.063-187.965z"/><path fill="#9A46E8" d="M1724.285 2508c.001 63.322-.133 124.644.062 185.965.095 29.58 5.336 58.264 16.848 85.657 18.922 45.025 51.82 77.047 94.235 99.645 32.57 17.353 67.403 28.326 104.06 33.308 5.825.791 11.567 2.185 18.263 3.476-2.57 52-5.928 102.85-10.626 154.817-4.686.262-8.565 1.052-12.294.602-82.145-9.916-158.033-36.56-225.206-85.665-56.384-41.217-97.224-94.477-120.76-160.427-13.287-37.234-21.025-75.725-21.074-115.377-.185-150.637-.082-301.275-.046-451.913.001-4.625.443-9.25.731-14.878 3.907-.835 7.573-2.099 11.298-2.31 6.645-.378 13.325-.126 19.99-.126 111.979-.001 223.96-.465 335.935.156 79.155.44 154.331 18.472 224.85 54.992 5.65 2.926 10.688 8.066 19.044 6.786 1.318-13.428.46-26.661.67-39.845.966-60.556 15.203-117.401 48.526-168.507 9.416-14.441 20.715-27.703 31.66-41.088 25.716-31.446 52.079-62.369 77.494-94.054 12.544-15.639 21.774-33.534 28.798-52.343 14.958-40.053 15.368-79.621-6.64-117.45-6.306-10.84-14.008-21.277-22.794-30.201-45.824-46.548-92.194-92.559-138.425-138.705-1.78-1.776-4.083-3.028-6.888-5.067-3.844 3.423-7.392 6.288-10.603 9.49-30.206 30.121-60.83 59.844-90.382 90.597-27.159 28.264-47.2 60.873-56.158 99.731-7.545 32.731-1.045 62.03 19.264 88.501 2.747 3.58 5.609 7.072 8.252 10.397-9.889 13.01-92.97 96.582-109.72 110.411-2.81-2.205-6.174-4.218-8.758-6.965-32.643-34.69-55.263-74.766-65.53-121.589-8.592-39.18-6.882-78.19 2.633-116.758 16.645-67.472 49.544-126.222 98.474-175.583 65.225-65.798 130.945-131.106 196.487-196.59 5.093-5.088 10.463-9.9 16.313-15.413 4.739 4.29 8.75 7.62 12.421 11.289 81.095 81.037 162.267 161.997 243.17 243.227 40.838 41.003 70.002 88.819 81.698 146.142 5.882 28.831 8.775 57.874 3.77 87.289-2.643 15.525-4.41 31.199-6.734 47.973 4.703 0 8.598.12 12.484-.02 16.622-.597 33.24-1.805 49.862-1.83 111.979-.166 223.957-.112 335.936-.031 7.851.006 15.914-1.193 24.639 2.195.524 3.86 1.303 7.63 1.487 11.429.259 5.32.078 10.661.078 15.993 0 140.64.419 281.282-.209 421.919-.245 55.04-9.624 108.592-32.874 159.18-28.385 61.76-72.257 110-128.829 146.618-56.628 36.654-118.592 59.981-185.567 69.491-10.483 1.489-20.82 4.647-32.656 2.333-4.697-16.578-2.316-33.943-3.836-50.92-1.483-16.564-2.292-33.186-3.58-49.768-1.337-17.179-4.506-34.26-3.078-52.38 6.395-4.236 13.742-4.352 20.825-5.482 46.667-7.44 90.374-22.607 128.919-50.605 51.895-37.695 78.628-89.13 81.99-152.86.84-15.958.694-31.976.708-47.967.064-78.652.029-157.304.029-235.955v-22.717c-4.624-.97-8.345-2.428-12.07-2.435-72.652-.125-145.361-1.849-217.939.49-57.375 1.85-112.246 16.964-158.932 52.234-36.991 27.946-60.904 64.849-64.712 112.499-1.164 14.574-2.237 29.208-2.245 43.815-.134 256.618-.092 513.235-.12 769.853-.002 7.856-.36 15.712-.565 24.084-10.886 3.49-20.886 1.72-30.664 1.993-10.656.298-21.327.068-31.992.068h-29.994c-10.665 0-21.333.16-31.993-.047-9.8-.191-19.753 1.101-29.987-1.448-2.215-8.636-1.391-16.616-1.394-24.47-.052-154.636.028-309.273-.152-463.91-.017-13.934-.662-28.005-2.663-41.773-7.746-53.3-37.62-91.359-83.326-117.979-31.461-18.323-65.66-28.777-101.319-35.245-19.784-3.588-39.628-4.427-59.656-4.362-61.987.2-123.976.073-185.964.073h-20.846c-.807 5.532-1.985 9.939-2.009 14.351-.165 30.662-.092 61.326-.094 93.989z"/></svg>